Coordinates
version=1
nRows=5
nColumns=60
inDegrees=yes

Units are S.I. units (second, meters, Newtons, ...)
If the header above contains a line with 'inDegrees', this indicates whether rotational values are in degrees (yes) or radians (no).

endheader
time	pelvis_tilt	pelvis_list	pelvis_rotation	pelvis_tx	pelvis_ty	pelvis_tz	hip_flexion_r	hip_adduction_r	hip_rotation_r	knee_angle_r_beta	knee_angle_r	ankle_angle_r	subtalar_angle_r	mtp_angle_r	hip_flexion_l	hip_adduction_l	hip_rotation_l	knee_angle_l_beta	knee_angle_l	ankle_angle_l	subtalar_angle_l	mtp_angle_l	L5_S1_Flex_Ext	L5_S1_Lat_Bending	L5_S1_axial_rotation	L4_L5_Flex_Ext	L4_L5_Lat_Bending	L4_L5_axial_rotation	L3_L4_Flex_Ext	L3_L4_Lat_Bending	L3_L4_axial_rotation	L2_L3_Flex_Ext	L2_L3_Lat_Bending	L2_L3_axial_rotation	L1_L2_Flex_Ext	L1_L2_Lat_Bending	L1_L2_axial_rotation	L1_T12_Flex_Ext	L1_T12_Lat_Bending	L1_T12_axial_rotation	Abs_r3	Abs_r2	Abs_r1	Abs_t1	Abs_t2	arm_flex_r	arm_add_r	arm_rot_r	elbow_flex_r	pro_sup_r	wrist_flex_r	wrist_dev_r	arm_flex_l	arm_add_l	arm_rot_l	elbow_flex_l	pro_sup_l	wrist_flex_l	wrist_dev_l
      8.99000000	      0.74380475	      4.90395086	     92.68464561	      0.40092468	      0.93465510	      0.32551499	      6.58064477	     -4.46852765	      1.46472301	      0.22470201	    -12.87447682	      5.17824531	      0.00000000	      0.00000000	      7.42273145	     -6.18188554	      1.41728229	      0.21012328	    -12.03917709	      5.36848751	      0.00000000	      0.00000000	     -7.98979950	      0.20553940	     -0.06934370	    -14.83785664	      0.27336740	     -0.07367768	    -13.12644159	      0.49974850	     -0.07367768	     -9.13154184	      0.49974850	     -0.06067574	     -7.41932781	      0.41913595	     -0.05634176	     -4.56537143	      0.31838053	     -0.05200778	    -57.07033882	      2.32510283	     -0.38566887	      0.00000000	      0.00000000	     17.07533576	    -24.93005983	      3.10089821	     86.05159065	     70.81868515	      7.05010337	     13.11494612	     20.78007820	    -24.84416127	     10.35938751	     83.03523119	     65.37392915	      7.04416756	     10.01783182
      9.00000000	      0.79327272	      4.75847547	     92.61611240	      0.40106595	      0.93433993	      0.32796874	      6.92341663	     -4.42165211	      1.62547379	      0.22473764	    -12.87651836	      4.96121963	      0.00000000	      0.00000000	      7.80079241	     -6.22136939	      1.51119773	      0.21214588	    -12.15506360	      5.18910734	      0.00000000	      0.00000000	     -8.10424277	      0.20817755	     -0.05410824	    -15.05038925	      0.27687615	     -0.05749000	    -13.31446045	      0.50616290	     -0.05749000	     -9.26233906	      0.50616290	     -0.04734471	     -7.52559984	      0.42451567	     -0.04396294	     -4.63076432	      0.32246703	     -0.04058118	    -57.88779568	      2.35494612	     -0.30093377	      0.00000000	      0.00000000	     17.79518632	    -24.91043922	      3.29287356	     85.56006053	     70.79901353	      7.13578950	     13.12443882	     21.49420788	    -24.81803638	     10.46953991	     82.50647769	     65.34017260	      7.13768850	     10.03203858
      9.01000000	      0.86734233	      4.46502767	     92.57038238	      0.40114146	      0.93377683	      0.33037508	      7.38691202	     -4.36735110	      1.65229312	      0.22326271	    -12.79201091	      4.71381076	      0.00000000	      0.00000000	      8.35021781	     -6.28060753	      1.50100721	      0.21415786	    -12.27034146	      5.07283976	      0.00000000	      0.00000000	     -8.17757602	      0.21597418	     -0.03750724	    -15.18657644	      0.28724566	     -0.03985144	    -13.43493965	      0.52511963	     -0.03985144	     -9.34615164	      0.52511963	     -0.03281883	     -7.59369710	      0.44041456	     -0.03047463	     -4.67266694	      0.33454401	     -0.02813043	    -58.41160779	      2.44314316	     -0.20860401	      0.00000000	      0.00000000	     18.63626553	    -24.98394241	      3.78298156	     84.74533538	     70.79611729	      7.37617325	     13.07226948	     22.39552180	    -24.80537930	     10.94449684	     81.57141993	     65.28565467	      7.46282305	     10.05781232
      9.02000000	      0.91685646	      4.29962533	     92.56516581	      0.40117994	      0.93335268	      0.33288927	      7.78827077	     -4.32924590	      1.78849644	      0.22479761	    -12.87995455	      4.53248653	      0.00000000	      0.00000000	      8.80208930	     -6.31414985	      1.65194854	      0.21753601	    -12.46389528	      4.89933739	      0.00000000	      0.00000000	     -8.29145677	      0.22232870	     -0.02962587	    -15.39806437	      0.29569717	     -0.03147749	    -13.62203433	      0.54056999	     -0.03147749	     -9.47630594	      0.54056999	     -0.02592264	     -7.69944676	      0.45337268	     -0.02407102	     -4.73773840	      0.34438715	     -0.02221940	    -59.22504656	      2.51502667	     -0.16477021	      0.00000000	      0.00000000	     19.43567757	    -24.98737516	      3.94086222	     84.26098783	     70.80316986	      7.45949621	     13.04219390	     23.23723698	    -24.76390338	     11.07624852	     81.00336601	     65.26430271	      7.58771861	     10.07572573
      9.03000000	      0.98835974	      3.93893926	     92.57416777	      0.40120886	      0.93262379	      0.33538971	      8.35248988	     -4.27959075	      1.74993804	      0.22450265	    -12.86305451	      4.32840407	      0.00000000	      0.00000000	      9.46787875	     -6.35584200	      1.69282033	      0.22014681	    -12.61348333	      4.82716915	      0.00000000	      0.00000000	     -8.35269999	      0.23477411	     -0.00993830	    -15.51179915	      0.31224956	     -0.01055945	    -13.72265082	      0.57082976	     -0.01055945	     -9.54630082	      0.57082976	     -0.00869601	     -7.75631721	      0.47875136	     -0.00807487	     -4.77273277	      0.36366509	     -0.00745373	    -59.66250077	      2.65581164	     -0.05527385	      0.00000000	      0.00000000	     20.38876990	    -25.10640237	      4.50607432	     83.37357520	     70.82100366	      7.78852187	     12.89396545	     24.34186869	    -24.74401559	     11.71647752	     79.88170309	     65.18248732	      8.10645685	     10.16244823
